<svg width="16" height="15" viewBox="0 0 16 15" fill="none" xmlns="http://www.w3.org/2000/svg">
<path d="M0.5 7.5C0.5 3.35786 3.85786 0 8 0C12.1421 0 15.5 3.35786 15.5 7.5C15.5 11.6421 12.1421 15 8 15C3.85786 15 0.5 11.6421 0.5 7.5Z" fill="#E84545"/>
<path fill-rule="evenodd" clip-rule="evenodd" d="M11.1314 4.36862C11.1692 4.40636 11.1992 4.45119 11.2197 4.50054C11.2402 4.5499 11.2507 4.60281 11.2507 4.65624C11.2507 4.70968 11.2402 4.76259 11.2197 4.81195C11.1992 4.8613 11.1692 4.90613 11.1314 4.94387L5.44387 10.6314C5.36759 10.7077 5.26412 10.7505 5.15624 10.7505C5.04836 10.7505 4.9449 10.7077 4.86862 10.6314C4.79234 10.5551 4.74948 10.4516 4.74948 10.3437C4.74948 10.2359 4.79234 10.1324 4.86862 10.0561L10.5561 4.36862C10.5939 4.33079 10.6387 4.30077 10.688 4.28029C10.7374 4.25981 10.7903 4.24927 10.8437 4.24927C10.8972 4.24927 10.9501 4.25981 10.9994 4.28029C11.0488 4.30077 11.0936 4.33079 11.1314 4.36862Z" fill="white"/>
<path fill-rule="evenodd" clip-rule="evenodd" d="M4.86862 4.36862C4.83079 4.40636 4.80077 4.45119 4.78029 4.50054C4.75981 4.5499 4.74927 4.60281 4.74927 4.65624C4.74927 4.70968 4.75981 4.76259 4.78029 4.81195C4.80077 4.8613 4.83079 4.90613 4.86862 4.94387L10.5561 10.6314C10.6324 10.7077 10.7359 10.7505 10.8437 10.7505C10.9516 10.7505 11.0551 10.7077 11.1314 10.6314C11.2077 10.5551 11.2505 10.4516 11.2505 10.3437C11.2505 10.2359 11.2077 10.1324 11.1314 10.0561L5.44387 4.36862C5.40613 4.33079 5.3613 4.30077 5.31195 4.28029C5.26259 4.25981 5.20968 4.24927 5.15624 4.24927C5.10281 4.24927 5.0499 4.25981 5.00054 4.28029C4.95119 4.30077 4.90636 4.33079 4.86862 4.36862Z" fill="white"/>
</svg>
