<svg width="16" height="15" viewBox="0 0 16 15" fill="none" xmlns="http://www.w3.org/2000/svg">
<path d="M0.5 7.5C0.5 3.35786 3.85786 0 8 0C12.1421 0 15.5 3.35786 15.5 7.5C15.5 11.6421 12.1421 15 8 15C3.85786 15 0.5 11.6421 0.5 7.5Z" fill="#0633C0"/>
<path fill-rule="evenodd" clip-rule="evenodd" d="M12.7564 3.96237C12.7942 4.00011 12.8242 4.04494 12.8447 4.09429C12.8652 4.14365 12.8758 4.19656 12.8758 4.24999C12.8758 4.30343 12.8652 4.35634 12.8447 4.4057C12.8242 4.45505 12.7942 4.49988 12.7564 4.53762L7.0689 10.2251C7.03116 10.263 6.98633 10.293 6.93698 10.3134C6.88762 10.3339 6.83471 10.3445 6.78128 10.3445C6.72784 10.3445 6.67493 10.3339 6.62557 10.3134C6.57622 10.293 6.53139 10.263 6.49365 10.2251L3.6499 7.38137C3.57362 7.30509 3.53076 7.20162 3.53076 7.09374C3.53076 6.98586 3.57362 6.8824 3.6499 6.80612C3.72618 6.72984 3.82964 6.68698 3.93752 6.68698C4.04541 6.68698 4.14887 6.72984 4.22515 6.80612L6.78128 9.36306L12.1812 3.96237C12.2189 3.92454 12.2637 3.89452 12.3131 3.87404C12.3624 3.85356 12.4153 3.84302 12.4688 3.84302C12.5222 3.84302 12.5751 3.85356 12.6245 3.87404C12.6738 3.89452 12.7187 3.92454 12.7564 3.96237Z" fill="white"/>
</svg>
